<svg xmlns="http://www.w3.org/2000/svg" width="920" height="920" viewBox="0 0 920 920" fill="none">
  <g stroke="#DCECC4" stroke-opacity=".2" stroke-width="1.2">
    <path d="M118 696C216 520 349 448 518 480C407 628 281 704 118 696Z"/>
    <path d="M148 680C280 622 390 558 508 486"/>
    <path d="M220 626C248 648 278 664 312 672"/>
    <path d="M286 588C320 610 358 624 398 628"/>
    <path d="M356 546C394 562 434 570 478 568"/>
    <path d="M712 162C600 198 534 274 512 390C628 360 698 284 712 162Z"/>
    <path d="M695 181C624 240 566 304 520 384"/>
    <path d="M626 234C646 246 670 252 694 254"/>
    <path d="M584 286C608 298 636 304 662 304"/>
    <path d="M548 340C572 348 596 350 622 346"/>
  </g>
</svg>
