<svg xmlns="http://www.w3.org/2000/svg" width="1200" height="900" viewBox="0 0 1200 900" fill="none">
  <defs>
    <linearGradient id="leaf" x1="0" x2="1" y1="0" y2="1">
      <stop offset="0" stop-color="#D9E8BC" stop-opacity=".32"/>
      <stop offset="1" stop-color="#2E6D4F" stop-opacity=".08"/>
    </linearGradient>
    <filter id="soft" x="-20%" y="-20%" width="140%" height="140%">
      <feGaussianBlur stdDeviation="1.2"/>
    </filter>
  </defs>
  <path d="M180 740C250 580 372 508 546 524C468 676 348 758 180 740Z" fill="url(#leaf)" filter="url(#soft)"/>
  <path d="M1015 190C898 218 814 178 760 72C888 58 972 96 1015 190Z" fill="url(#leaf)" filter="url(#soft)"/>
  <path d="M1040 780C904 718 838 622 842 492C982 548 1052 644 1040 780Z" fill="url(#leaf)" filter="url(#soft)"/>
  <path d="M180 150C292 154 376 211 433 320C298 329 214 272 180 150Z" fill="url(#leaf)" filter="url(#soft)"/>
  <path d="M602 96C656 214 640 332 552 450C490 326 506 208 602 96Z" fill="url(#leaf)" filter="url(#soft)"/>
</svg>
