<svg xmlns="http://www.w3.org/2000/svg" viewBox="0 0 720 560" role="img" aria-label="Abstract rainforest room placeholder">
  <defs>
    <linearGradient id="bg" x1="0" x2="1" y1="0" y2="1">
      <stop stop-color="#071c16"/>
      <stop offset=".55" stop-color="#123f31"/>
      <stop offset="1" stop-color="#6f8666"/>
    </linearGradient>
    <radialGradient id="mist" cx=".35" cy=".22" r=".48">
      <stop stop-color="#b8c9b3" stop-opacity=".58"/>
      <stop offset="1" stop-color="#b8c9b3" stop-opacity="0"/>
    </radialGradient>
  </defs>
  <rect width="720" height="560" fill="url(#bg)"/>
  <circle cx="244" cy="136" r="210" fill="url(#mist)"/>
  <path d="M-20 468C120 330 244 520 390 372S630 240 760 315" fill="none" stroke="#77c7cf" stroke-width="10" stroke-linecap="round" opacity=".72"/>
  <path d="M82 620C152 436 150 275 92 95c142 94 178 276 72 525Z" fill="#0b2b22" opacity=".72"/>
  <path d="M584 610c-98-184-82-352 44-508 82 176 56 340-44 508Z" fill="#1b5b47" opacity=".66"/>
  <path d="M216 560c70-180 190-315 365-405-18 156-133 314-365 405Z" fill="#b8c9b3" opacity=".18"/>
  <g opacity=".2" stroke="#fbf8ef">
    <path d="M110 80v420M140 120v365M170 54v438M608 130v330M636 78v410"/>
  </g>
</svg>
