<svg xmlns="http://www.w3.org/2000/svg" viewBox="0 0 1400 1000" role="img" aria-label="Bamboo courtyard"><rect width="1400" height="1000" fill="#e8decd"/><path d="M0 380 C200 210 450 520 700 340 C920 180 1090 500 1400 300 V1000 H0Z" fill="#63785d" opacity=".48"/><path d="M0 735 L1400 630 V1000 H0Z" fill="#b08a62" opacity=".68"/><g stroke="#2b4938" stroke-width="14" opacity=".55"><path d="M190 120 C170 310 220 500 190 830"/><path d="M260 80 C225 310 300 500 260 850"/><path d="M1130 105 C1090 300 1160 520 1125 850"/></g><rect x="330" y="560" width="640" height="210" fill="#efe5d4"/><rect x="285" y="755" width="730" height="45" fill="#44352c"/><ellipse cx="1045" cy="725" rx="180" ry="62" fill="#6e8f89" opacity=".65"/><text x="85" y="875" fill="#fffaf2" opacity=".55" font-family="Georgia, serif" font-size="44">BAMBOO COURTYARD</text></svg>
