<svg xmlns="http://www.w3.org/2000/svg" viewBox="0 0 1800 1200" role="img" aria-labelledby="title desc"><title id="title">山居民宿庭院与室内灯光</title><desc id="desc">克制的山居空间插画，包含木梁、庭院、山影与床榻。</desc><defs><linearGradient id="sky" x1="0" y1="0" x2="0" y2="1"><stop offset="0" stop-color="#65715f"/><stop offset="1" stop-color="#30382f"/></linearGradient></defs><rect width="1800" height="1200" fill="url(#sky)"/><path d="M0 500 C250 250 470 590 760 380 C1040 180 1220 520 1800 310 V1200 H0Z" fill="#4f674b" opacity=".58"/><path d="M0 850 L1800 730 V1200 H0Z" fill="#9b7a5a" opacity=".76"/><rect x="130" y="145" width="130" height="850" fill="#332d28" opacity=".82"/><rect x="130" y="145" width="1260" height="80" fill="#332d28" opacity=".82"/><rect x="1320" y="145" width="70" height="850" fill="#332d28" opacity=".82"/><ellipse cx="1180" cy="865" rx="210" ry="78" fill="#70827a" opacity=".72"/><ellipse cx="260" cy="395" rx="165" ry="145" fill="#3d5638" opacity=".75"/><rect x="520" y="650" width="620" height="205" fill="#eee8da"/><rect x="475" y="845" width="710" height="46" fill="#43392e"/><rect x="575" y="570" width="220" height="100" fill="#faf4e8"/><rect x="805" y="585" width="220" height="90" fill="#c6b8a7"/><text x="125" y="1040" fill="#fffcf7" opacity=".58" font-family="Georgia, serif" font-size="58">QIYUN RETREAT</text></svg>
