<svg xmlns="http://www.w3.org/2000/svg" viewBox="0 0 1800 1200" role="img" aria-label="Xishuangbanna rainforest retreat"><defs><linearGradient id="g" x1="0" y1="0" x2="0" y2="1"><stop offset="0" stop-color="#5f7767"/><stop offset="1" stop-color="#17241d"/></linearGradient></defs><rect width="1800" height="1200" fill="url(#g)"/><path d="M0 500 C250 250 500 620 820 340 C1060 130 1280 520 1800 280 V1200 H0Z" fill="#2f5d46" opacity=".64"/><path d="M0 760 C270 620 430 820 710 620 C980 430 1180 760 1800 560 V1200 H0Z" fill="#73906f" opacity=".38"/><path d="M0 875 L1800 730 V1200 H0Z" fill="#b08a62" opacity=".68"/><rect x="130" y="150" width="135" height="760" fill="#243029" opacity=".88"/><rect x="130" y="150" width="1260" height="72" fill="#243029" opacity=".88"/><rect x="1310" y="150" width="78" height="760" fill="#243029" opacity=".88"/><ellipse cx="1230" cy="835" rx="235" ry="82" fill="#6e8f89" opacity=".7"/><rect x="520" y="650" width="610" height="195" fill="#efe4d3"/><rect x="482" y="835" width="688" height="45" fill="#3b312a"/><text x="120" y="1045" fill="#fffaf2" opacity=".55" font-family="Georgia, serif" font-size="58">XISHUANGBANNA RETREAT</text></svg>
