<svg xmlns="http://www.w3.org/2000/svg" viewBox="0 0 1400 1000" role="img" aria-label="Tea mountain studio"><rect width="1400" height="1000" fill="#ded8c7"/><path d="M0 430 C220 270 430 530 690 360 C940 195 1110 500 1400 320 V1000 H0Z" fill="#71825c" opacity=".55"/><g fill="none" stroke="#455d3e" stroke-width="10" opacity=".38"><path d="M120 610 C360 540 520 660 760 585 C960 520 1130 620 1320 555"/><path d="M120 690 C360 620 520 740 760 665 C960 600 1130 700 1320 635"/></g><rect x="365" y="585" width="620" height="54" fill="#46382f"/><rect x="440" y="640" width="45" height="150" fill="#46382f"/><rect x="875" y="640" width="45" height="150" fill="#46382f"/><circle cx="650" cy="555" r="30" fill="#f8efe1"/><circle cx="735" cy="555" r="26" fill="#7a8965"/><text x="90" y="875" fill="#fffaf2" opacity=".55" font-family="Georgia, serif" font-size="44">TEA MOUNTAIN</text></svg>
