<svg xmlns="http://www.w3.org/2000/svg" viewBox="0 0 64 64" fill="none">
  <rect width="64" height="64" rx="20" fill="#F3FBED"/>
  <rect x="6" y="6" width="52" height="52" rx="18" fill="url(#bg)"/>
  <path d="M19 35.5c7.6-.8 13.3-5.5 16.1-15.2 5.6 4.4 7.8 10.1 6.3 16.6-1.7 7.2-7.4 11.3-17.5 12 3.2-3.1 5.2-6 6-8.8-2.9 1.5-6.5 1.6-10.9.4v-5Z" fill="#79CF80"/>
  <path d="M18.5 37.8 32 27.2l13.5 10.6" stroke="#155C3C" stroke-width="3.6" stroke-linecap="round" stroke-linejoin="round"/>
  <path d="M22.5 37.5h19v12.2h-19V37.5Z" fill="#FFFFFF" stroke="#155C3C" stroke-width="3.2" stroke-linejoin="round"/>
  <path d="M29 49.7v-6.4a3 3 0 0 1 6 0v6.4" fill="#E8F7DD" stroke="#155C3C" stroke-width="2.6"/>
  <path d="M17 52c4.7 1.9 9.4 1.9 14.1 0 4.7-1.9 9.4-1.9 14.1 0" stroke="#35A66A" stroke-width="2.4" stroke-linecap="round"/>
  <path d="M44.5 18.5c2.6 1.9 4.1 4.4 4.5 7.6" stroke="#F6C65B" stroke-width="3" stroke-linecap="round"/>
  <defs>
    <linearGradient id="bg" x1="10" y1="9" x2="55" y2="58" gradientUnits="userSpaceOnUse">
      <stop stop-color="#DFF4E7"/>
      <stop offset=".56" stop-color="#E8F7DD"/>
      <stop offset="1" stop-color="#FFF4D8"/>
    </linearGradient>
  </defs>
</svg>
